# xmcd CD database file
#
# Track frame offsets:
#	150
#	22120
#	35662
#	53502
#	70540
#	92657
#	118512
#	140195
#	157772
#	172087
#	187167
#	212507
#
# Disc length: 2979 seconds
#
# Revision: 11
# Processed by: cddbd v1.5.2PL0 Copyright (c) Steve Scherf et al.
# Submitted via: CDex 2.11
#
DISCID=a50ba10c
DTITLE=Earl Scruggs - and Friends
DYEAR=2001
DGENRE=Country/Folk
TTITLE0=Country Comfort (with Elton John)
TTITLE1=Borrowed Love (with Dwight Yoakam)
TTITLE2=Ring Of Fire (with Billy Bob Thornton)
TTITLE3=True Love Never Dies (with Gary Scruggs and Travis Tritt)
TTITLE4=The Angels (with Melissa Ethridge)
TTITLE5=Fill Her Up (with Sting)
TTITLE6=Foggy Mountain Breakdown (with Glen Duncan, Randy Scruggs, Steve Martin, Vince Gill)
TTITLE7=Somethin' Just Ain't Right (with Randy Scruggs)
TTITLE8=I Found Love (with Vince Gill and Rosanne Cash)
TTITLE9=Blue Ridge Mountain Blues (with John Fogerty)
TTITLE10=Passin' Thru (with Don Henley and Johnny Cash)
TTITLE11=Foggy Mountain Rock - Foggy Mountain Special (with Marty Stuart)
EXTD=YEAR: 2001
EXTT0=
EXTT1=
EXTT2=
EXTT3=
EXTT4=
EXTT5=
EXTT6=
EXTT7=
EXTT8=
EXTT9=
EXTT10=
EXTT11=
PLAYORDER=
